<mxfile host="app.diagrams.net" modified="2023-06-05T09:09:00.543Z" agent="Mozilla/5.0 (Windows NT 10.0; Win64; x64) AppleWebKit/537.36 (KHTML, like Gecko) Chrome/112.0.0.0 Safari/537.36" etag="NM5GAOlMxw33vu9mgrqM" version="21.3.7" type="github">
  <diagram id="C5RBs43oDa-KdzZeNtuy" name="Page-1">
    <mxGraphModel dx="989" dy="521" grid="1" gridSize="10" guides="1" tooltips="1" connect="1" arrows="1" fold="1" page="1" pageScale="1" pageWidth="827" pageHeight="1169" math="0" shadow="0">
      <root>
        <mxCell id="WIyWlLk6GJQsqaUBKTNV-0" />
        <mxCell id="WIyWlLk6GJQsqaUBKTNV-1" parent="WIyWlLk6GJQsqaUBKTNV-0" />
        <mxCell id="xkzqJSquqaWhXPrr6gYa-0" value="TS2" style="rounded=0;whiteSpace=wrap;html=1;" vertex="1" parent="WIyWlLk6GJQsqaUBKTNV-1">
          <mxGeometry x="130" y="220" width="450" height="60" as="geometry" />
        </mxCell>
        <mxCell id="xkzqJSquqaWhXPrr6gYa-2" value="WebAPI" style="rounded=0;whiteSpace=wrap;html=1;" vertex="1" parent="WIyWlLk6GJQsqaUBKTNV-1">
          <mxGeometry x="130" y="320" width="450" height="60" as="geometry" />
        </mxCell>
        <mxCell id="xkzqJSquqaWhXPrr6gYa-3" value="ACS" style="rounded=0;whiteSpace=wrap;html=1;" vertex="1" parent="WIyWlLk6GJQsqaUBKTNV-1">
          <mxGeometry x="130" y="410" width="90" height="60" as="geometry" />
        </mxCell>
        <mxCell id="xkzqJSquqaWhXPrr6gYa-4" value="UBS" style="rounded=0;whiteSpace=wrap;html=1;" vertex="1" parent="WIyWlLk6GJQsqaUBKTNV-1">
          <mxGeometry x="230" y="410" width="80" height="60" as="geometry" />
        </mxCell>
        <mxCell id="xkzqJSquqaWhXPrr6gYa-5" value="redis" style="shape=cylinder3;whiteSpace=wrap;html=1;boundedLbl=1;backgroundOutline=1;size=15;" vertex="1" parent="WIyWlLk6GJQsqaUBKTNV-1">
          <mxGeometry x="325" y="400" width="60" height="80" as="geometry" />
        </mxCell>
        <mxCell id="xkzqJSquqaWhXPrr6gYa-6" value="SQL&lt;br&gt;Server" style="shape=cylinder3;whiteSpace=wrap;html=1;boundedLbl=1;backgroundOutline=1;size=15;" vertex="1" parent="WIyWlLk6GJQsqaUBKTNV-1">
          <mxGeometry x="390" y="400" width="60" height="80" as="geometry" />
        </mxCell>
        <mxCell id="xkzqJSquqaWhXPrr6gYa-7" value="ELK" style="shape=cylinder3;whiteSpace=wrap;html=1;boundedLbl=1;backgroundOutline=1;size=15;" vertex="1" parent="WIyWlLk6GJQsqaUBKTNV-1">
          <mxGeometry x="455" y="400" width="60" height="80" as="geometry" />
        </mxCell>
        <mxCell id="xkzqJSquqaWhXPrr6gYa-8" value="New Relic" style="shape=cylinder3;whiteSpace=wrap;html=1;boundedLbl=1;backgroundOutline=1;size=15;" vertex="1" parent="WIyWlLk6GJQsqaUBKTNV-1">
          <mxGeometry x="520" y="400" width="60" height="80" as="geometry" />
        </mxCell>
        <mxCell id="xkzqJSquqaWhXPrr6gYa-10" value="" style="shape=flexArrow;endArrow=classic;html=1;rounded=0;" edge="1" parent="WIyWlLk6GJQsqaUBKTNV-1">
          <mxGeometry width="50" height="50" relative="1" as="geometry">
            <mxPoint x="209.99999999999997" y="190" as="sourcePoint" />
            <mxPoint x="209.99999999999997" y="250" as="targetPoint" />
          </mxGeometry>
        </mxCell>
        <mxCell id="xkzqJSquqaWhXPrr6gYa-12" value="" style="shape=flexArrow;endArrow=classic;html=1;rounded=0;" edge="1" parent="WIyWlLk6GJQsqaUBKTNV-1">
          <mxGeometry width="50" height="50" relative="1" as="geometry">
            <mxPoint x="470" y="330" as="sourcePoint" />
            <mxPoint x="470" y="270" as="targetPoint" />
          </mxGeometry>
        </mxCell>
        <mxCell id="xkzqJSquqaWhXPrr6gYa-13" value="" style="shape=flexArrow;endArrow=classic;html=1;rounded=0;" edge="1" parent="WIyWlLk6GJQsqaUBKTNV-1">
          <mxGeometry width="50" height="50" relative="1" as="geometry">
            <mxPoint x="209.99999999999997" y="270" as="sourcePoint" />
            <mxPoint x="209.99999999999997" y="330" as="targetPoint" />
          </mxGeometry>
        </mxCell>
        <mxCell id="xkzqJSquqaWhXPrr6gYa-14" value="" style="endArrow=classic;startArrow=classic;html=1;rounded=0;entryX=0.097;entryY=1.019;entryDx=0;entryDy=0;entryPerimeter=0;" edge="1" parent="WIyWlLk6GJQsqaUBKTNV-1" source="xkzqJSquqaWhXPrr6gYa-3" target="xkzqJSquqaWhXPrr6gYa-2">
          <mxGeometry width="50" height="50" relative="1" as="geometry">
            <mxPoint x="440" y="390" as="sourcePoint" />
            <mxPoint x="490" y="340" as="targetPoint" />
            <Array as="points">
              <mxPoint x="175" y="390" />
            </Array>
          </mxGeometry>
        </mxCell>
        <mxCell id="xkzqJSquqaWhXPrr6gYa-16" value="" style="endArrow=classic;startArrow=classic;html=1;rounded=0;entryX=0.303;entryY=1.02;entryDx=0;entryDy=0;entryPerimeter=0;exitX=0.457;exitY=-0.005;exitDx=0;exitDy=0;exitPerimeter=0;" edge="1" parent="WIyWlLk6GJQsqaUBKTNV-1" source="xkzqJSquqaWhXPrr6gYa-4" target="xkzqJSquqaWhXPrr6gYa-2">
          <mxGeometry width="50" height="50" relative="1" as="geometry">
            <mxPoint x="280" y="410" as="sourcePoint" />
            <mxPoint x="330" y="360" as="targetPoint" />
          </mxGeometry>
        </mxCell>
        <mxCell id="xkzqJSquqaWhXPrr6gYa-17" value="" style="endArrow=classic;startArrow=classic;html=1;rounded=0;exitX=0.25;exitY=0.125;exitDx=0;exitDy=0;exitPerimeter=0;entryX=0.468;entryY=1;entryDx=0;entryDy=0;entryPerimeter=0;" edge="1" parent="WIyWlLk6GJQsqaUBKTNV-1">
          <mxGeometry width="50" height="50" relative="1" as="geometry">
            <mxPoint x="355" y="410" as="sourcePoint" />
            <mxPoint x="355.6" y="380" as="targetPoint" />
          </mxGeometry>
        </mxCell>
        <mxCell id="xkzqJSquqaWhXPrr6gYa-19" value="" style="endArrow=classic;startArrow=classic;html=1;rounded=0;exitX=0.25;exitY=0.125;exitDx=0;exitDy=0;exitPerimeter=0;entryX=0.468;entryY=1;entryDx=0;entryDy=0;entryPerimeter=0;" edge="1" parent="WIyWlLk6GJQsqaUBKTNV-1">
          <mxGeometry width="50" height="50" relative="1" as="geometry">
            <mxPoint x="419.5" y="410" as="sourcePoint" />
            <mxPoint x="420.5" y="380" as="targetPoint" />
          </mxGeometry>
        </mxCell>
        <mxCell id="xkzqJSquqaWhXPrr6gYa-21" value="" style="endArrow=classic;html=1;rounded=0;exitX=0.786;exitY=1.027;exitDx=0;exitDy=0;exitPerimeter=0;" edge="1" parent="WIyWlLk6GJQsqaUBKTNV-1">
          <mxGeometry width="50" height="50" relative="1" as="geometry">
            <mxPoint x="550.39" y="380" as="sourcePoint" />
            <mxPoint x="549.6018758434548" y="410" as="targetPoint" />
          </mxGeometry>
        </mxCell>
        <mxCell id="xkzqJSquqaWhXPrr6gYa-22" value="" style="endArrow=classic;html=1;rounded=0;exitX=0.786;exitY=1.027;exitDx=0;exitDy=0;exitPerimeter=0;" edge="1" parent="WIyWlLk6GJQsqaUBKTNV-1">
          <mxGeometry width="50" height="50" relative="1" as="geometry">
            <mxPoint x="485.39" y="380" as="sourcePoint" />
            <mxPoint x="484.60187584345476" y="410" as="targetPoint" />
          </mxGeometry>
        </mxCell>
        <mxCell id="xkzqJSquqaWhXPrr6gYa-23" value="" style="shape=flexArrow;endArrow=classic;html=1;rounded=0;" edge="1" parent="WIyWlLk6GJQsqaUBKTNV-1">
          <mxGeometry width="50" height="50" relative="1" as="geometry">
            <mxPoint x="470" y="253" as="sourcePoint" />
            <mxPoint x="470" y="193" as="targetPoint" />
          </mxGeometry>
        </mxCell>
      </root>
    </mxGraphModel>
  </diagram>
</mxfile>
